<?xml version="1.0" encoding="utf-8"?>
<!-- Generator: Adobe Illustrator 21.1.0, SVG Export Plug-In . SVG Version: 6.00 Build 0)  -->
<svg version="1.1" id="Layer_1" xmlns="http://www.w3.org/2000/svg" xmlns:xlink="http://www.w3.org/1999/xlink" x="0px" y="0px"
	 viewBox="0 0 315.3 78.1" style="enable-background:new 0 0 315.3 78.1;" xml:space="preserve">
<style type="text/css">
	.st0{fill:#005197;}
</style>
<g>
	<g>
		<g>
			<path class="st0" d="M285.7,46.9c-0.5,3.7-2.8,6.9-6.7,8.4c-6.2,2.4-12.4-1.1-14.9-7.4c-0.9-2.1-1.2-4.3-1-6.4l-22.9,9
				c-1.1,2-3,3.7-5.6,4.7c-4.9,1.9-9.8,0.2-12.8-3.7l48-18.9c1.5-0.6,2.9-0.7,4-0.8c4.3,0,8.1,2.6,10.3,6.7l10.7-4.2
				c-3.7-7.6-11.4-12.8-20.4-12.8c-10.9,0-20,7.7-22.1,17.9c-2.2-10.2-11.3-17.9-22.1-17.9c-7.4,0-13.9,3.5-18.1,9v-7.8h-9.9V11.2
				l-12.7,5.2v23.2c-1.9-9.9-11.1-17.9-22.1-17.9c-11.5,0-21,8.6-22.4,19.7v-2.6c0-10.2-5.8-17.4-15.8-17.4
				c-7.6,0-10.3,3.8-11.7,6.2v-4.7h-11.9v16.6c-2.2-10.2-11.3-17.8-22.1-17.8c-11.2,0-20.4,8.1-22.3,18.7c0-3.8-0.9-7.4-2.3-10.7
				l-24.5,9.6l3,7.7l11.9-4.7c-0.2,5.5-3.2,10.3-8.9,12.5c-8,3.1-15.9-1.3-19-9.1c-3.1-7.8-0.4-16.2,7.7-19.3
				c5.3-2,10.6-0.8,14.4,2.5l12.2-4.8c-4.8-6.1-12.3-10-20.7-10C20.3,14.1,8.5,26,8.5,40.5c0,14.6,11.8,26.4,26.4,26.4
				c13.1,0,24-9.6,26.1-22.2C61.2,57,71.2,66.9,83.6,66.9c10.8,0,19.9-7.6,22.1-17.8v16.2h12.8c0,0,0-24.1,0-24.7l-24.8,9.8
				c-1.1,2.1-3,3.9-5.7,4.9c-5,1.9-9.9,0.1-12.9-3.8c0,0,47.1-18.5,47.2-18.6c1.2-0.5,2.4-0.7,3.4-0.7c6.7,0,6.7,6.9,6.7,9.9v23.2
				h12.7V47.2c1.4,11.1,10.9,19.7,22.4,19.7c10.8,0,19.9-7.6,22.1-17.8v16.2h12.7V40.8l-24.8,9.7c-1.1,2.1-3,3.8-5.6,4.7
				c-4.9,1.9-9.8,0.2-12.8-3.7l53-20.8c-2.8,3.8-4.5,8.5-4.5,13.5c0,12.5,10.1,22.6,22.6,22.6c10.9,0,20-7.7,22.1-17.9
				c2.2,10.2,11.3,17.9,22.1,17.9c11,0,20.1-7.8,22.2-18.2L285.7,46.9z M72.2,43.8c-0.2-4.6,2.2-8.7,6.9-10.5
				c4.6-1.8,9.2-0.4,12.2,3L72.2,43.8z M156.2,43.9c-0.2-4.6,2.2-8.8,6.9-10.6c4.7-1.8,9.3-0.3,12.3,3.1L156.2,43.9z M225.8,33.3
				c4.7-1.8,9.3-0.3,12.3,3.1l-19.2,7.6C218.7,39.3,221.1,35.1,225.8,33.3z"/>
		</g>
	</g>
	<g>
		<path class="st0" d="M297.8,16.7H296V16h4.3v0.7h-1.8v4.8h-0.7V16.7z"/>
		<path class="st0" d="M301.1,16h1.1l1.8,4.2h0l1.7-4.2h1.1v5.5h-0.7V17h0l-1.9,4.5h-0.5l-1.9-4.5h0v4.5h-0.7V16z"/>
	</g>
</g>
</svg>
